<?xml version="1.0" encoding="UTF-8"?>
<svg width="14px" height="14px" viewBox="0 0 14 14" version="1.1" xmlns="http://www.w3.org/2000/svg" xmlns:xlink="http://www.w3.org/1999/xlink">
    <title>profile copy 2</title>
    <g id="Page-1" stroke="none" stroke-width="1" fill="none" fill-rule="evenodd">
        <g id="1-user-management-list" transform="translate(-29.000000, -182.000000)" fill="#FFFFFF">
            <path d="M35.9770115,189.413543 C38.045977,189.413543 39.7241379,187.750905 39.7241379,185.701078 C39.7241379,183.65125 38.045977,182 35.9770115,182 C33.908046,182 32.2298851,183.662638 32.2298851,185.701078 C32.2298851,187.739517 33.908046,189.413543 35.9770115,189.413543 L35.9770115,189.413543 Z M38.2988506,190.062655 C40.8965517,190.062655 43,192.158035 43,194.720319 C43,194.993629 42.7816092,195.21 42.5057471,195.21 L42.5057471,195.21 L29.4942529,195.21 C29.2183908,195.21 29,194.993629 29,194.720319 C29,192.146647 31.1149425,190.062655 33.7011494,190.062655 L33.7011494,190.062655 Z M38.2988506,191.042017 L33.7011494,191.042017 C31.816092,191.042017 30.2643678,192.442733 30.0229885,194.230638 L30.0229885,194.230638 L41.9770115,194.230638 C41.7356322,192.431345 40.183908,191.042017 38.2988506,191.042017 L38.2988506,191.042017 Z M35.9770115,182.967974 C37.4942529,182.967974 38.7356322,184.197871 38.7356322,185.701078 C38.7356322,187.204284 37.4942529,188.434181 35.9770115,188.434181 C34.4597701,188.434181 33.2183908,187.204284 33.2183908,185.701078 C33.2183908,184.197871 34.4597701,182.967974 35.9770115,182.967974 Z" id="profile-copy-2"></path>
        </g>
    </g>
</svg>