<?xml version="1.0" encoding="UTF-8"?>
<svg width="15px" height="13px" viewBox="0 0 15 13" version="1.1" xmlns="http://www.w3.org/2000/svg" xmlns:xlink="http://www.w3.org/1999/xlink">
    <title>monitor copy 3</title>
    <g id="Page-1" stroke="none" stroke-width="1" fill="none" fill-rule="evenodd">
        <g id="1-user-management-list" transform="translate(-28.000000, -90.000000)" fill="#9294A3">
            <path d="M41.6121425,90 L28.4978571,90 C28.2185714,90 28,90.2166667 28,90.4935185 L28,96.7166667 L28,99.2564815 C28,99.5333333 28.2185714,99.75 28.4978571,99.75 L34.5571427,99.75 L34.5571427,102.012963 L31.7764285,102.012963 C31.4971428,102.012963 31.2785713,102.22963 31.2785713,102.506481 C31.2785713,102.783333 31.4971428,103 31.7764285,103 L38.3335712,103 C38.6128569,103 38.8314283,102.783333 38.8314283,102.506481 C38.8314283,102.22963 38.6128569,102.012963 38.3335712,102.012963 L35.552857,102.012963 L35.552857,99.75 L41.6121425,99.75 C41.8914282,99.75 42.1099997,99.5333333 42.1099997,99.2564815 L42.1099997,96.7166667 L42.1099997,90.4935185 C42.1099997,90.2166667 41.8914282,90 41.6121425,90 L41.6121425,90 Z M41.1142854,98.762963 L28.9957143,98.762963 L28.9957143,97.1981481 L41.1142854,97.1981481 L41.1142854,98.762963 L41.1142854,98.762963 Z M41.1142854,96.2231481 L28.9957143,96.2231481 L28.9957143,90.987037 L41.1142854,90.987037 L41.1142854,96.2231481 L41.1142854,96.2231481 Z" id="monitor-copy-3"></path>
        </g>
    </g>
</svg>