<?xml version="1.0" encoding="UTF-8"?>
<svg width="16px" height="16px" viewBox="0 0 16 16" version="1.1" xmlns="http://www.w3.org/2000/svg" xmlns:xlink="http://www.w3.org/1999/xlink">
    <title>shield</title>
    <g id="Page-1" stroke="none" stroke-width="1" fill="none" fill-rule="evenodd">
        <g id="1-user-management-list" transform="translate(-29.000000, -363.000000)" fill="#9294A3">
            <path d="M44.4454073,366.747623 C44.4176776,366.747623 40.9514731,366.66465 37.4159445,363.165946 C37.305026,363.055315 37.1663778,363 37.0138648,363 L36.9584055,363 C36.8058925,363 36.6672444,363.055315 36.5563258,363.165946 C33.0485269,366.66465 29.5823224,366.747623 29.5545927,366.747623 C29.2495667,366.747623 29,366.996543 29,367.314607 L29,370.965428 C29,371.034572 29.0138648,371.103717 29.0415945,371.172861 C29.1386482,371.42178 31.5372617,377.326707 36.8058925,378.972342 C36.8613518,378.986171 36.9168111,379 36.9722704,379 L37.0277296,379 C37.0831889,379 37.1386482,378.986171 37.1941075,378.972342 C42.4627383,377.326707 44.8613518,371.42178 44.9584055,371.172861 C44.9861352,371.103717 45,371.034572 45,370.965428 L45,367.314607 C45,367.010372 44.7504333,366.761452 44.4454073,366.747623 L44.4454073,366.747623 Z M43.8769497,370.854797 C43.5580589,371.587727 41.3258232,376.414002 37,377.852204 C32.6741768,376.414002 30.4419411,371.587727 30.1230503,370.840968 L30.1230503,367.826275 C31.287695,367.674157 34.0745234,367.038029 37,364.313742 C39.9254766,367.038029 42.712305,367.674157 43.8769497,367.826275 L43.8769497,370.854797 L43.8769497,370.854797 Z" id="shield"></path>
        </g>
    </g>
</svg>