<?xml version="1.0" encoding="UTF-8"?>
<svg width="13px" height="16px" viewBox="0 0 13 16" version="1.1" xmlns="http://www.w3.org/2000/svg" xmlns:xlink="http://www.w3.org/1999/xlink">
    <title>padnote copy 2</title>
    <g id="Page-1" stroke="none" stroke-width="1" fill="none" fill-rule="evenodd" opacity="0.5">
        <g id="1-user-management-list" transform="translate(-29.000000, -226.000000)" fill="#FFFFFF">
            <path d="M38.2852304,226 L32.2387475,226 C31.955511,226 31.7338477,226.228571 31.7338477,226.520635 L31.7338477,227.244444 L29.5048998,227.244444 C29.2216633,227.244444 29,227.473016 29,227.765079 L29,241.479365 C29,241.771429 29.2216633,242 29.5048998,242 L40.7851002,242 C41.0683366,242 41.29,241.771429 41.29,241.479365 L41.29,227.765079 C41.29,227.473016 41.0683366,227.244444 40.7851002,227.244444 L38.7901302,227.244444 L38.7901302,226.520635 C38.7901302,226.228571 38.5684669,226 38.2852304,226 L38.2852304,226 Z M32.7436473,227.765079 L32.7436473,227.04127 L37.7803306,227.04127 L37.7803306,227.765079 L37.7803306,228.679365 L32.7436473,228.679365 L32.7436473,227.765079 L32.7436473,227.765079 Z M31.7338477,228.285714 L31.7338477,229.2 C31.7338477,229.492063 31.955511,229.720635 32.2387475,229.720635 L38.2852304,229.720635 C38.5684669,229.720635 38.7901302,229.492063 38.7901302,229.2 L38.7901302,228.285714 L40.2802004,228.285714 L40.2802004,240.95873 L30.0097996,240.95873 L30.0097996,228.285714 L31.7338477,228.285714 Z M35.2681463,237.530159 L31.623016,237.530159 C31.3397796,237.530159 31.1181162,237.75873 31.1181162,238.050794 C31.1181162,238.342857 31.3397796,238.571429 31.623016,238.571429 L35.2558316,238.571429 C35.5390681,238.571429 35.7607314,238.342857 35.7607314,238.050794 C35.7607314,237.75873 35.5390681,237.530159 35.2681463,237.530159 Z M38.9009619,235.015873 L31.623016,235.015873 C31.3397796,235.015873 31.1181162,235.244444 31.1181162,235.536508 C31.1181162,235.828571 31.3397796,236.057143 31.623016,236.057143 L38.9009619,236.057143 C39.1841984,236.057143 39.4058617,235.828571 39.4058617,235.536508 C39.4058617,235.244444 39.1841984,235.015873 38.9009619,235.015873 Z M38.9009619,232.488889 L31.623016,232.488889 C31.3397796,232.488889 31.1181162,232.730159 31.1181162,233.009524 C31.1181162,233.301587 31.3397796,233.530159 31.623016,233.530159 L38.9009619,233.530159 C39.1841984,233.530159 39.4058617,233.301587 39.4058617,233.009524 C39.4058617,232.71746 39.1841984,232.488889 38.9009619,232.488889 Z" id="padnote-copy-2"></path>
        </g>
    </g>
</svg>