<?xml version="1.0" encoding="UTF-8"?>
<svg width="13px" height="15px" viewBox="0 0 13 15" version="1.1" xmlns="http://www.w3.org/2000/svg" xmlns:xlink="http://www.w3.org/1999/xlink">
    <title>file copy 2</title>
    <g id="Page-1" stroke="none" stroke-width="1" fill="none" fill-rule="evenodd">
        <g id="1-user-management-list" transform="translate(-29.000000, -134.000000)" fill="#9294A3">
            <path d="M29.5340681,149 L41.4659319,149 C41.7655311,149 42,148.767442 42,148.470284 L42,134.529716 C42,134.232558 41.7655311,134 41.4659319,134 L32.5170341,134 C32.4779559,134 32.4258517,134 32.3867735,134.01292 C32.3737475,134.01292 32.3607214,134.02584 32.3607214,134.02584 C32.3216433,134.03876 32.2955912,134.05168 32.256513,134.064599 C32.243487,134.077519 32.2304609,134.077519 32.2174349,134.090439 C32.1783567,134.116279 32.1392786,134.142119 32.1132265,134.180879 L29.1302605,137.669251 C29.0911824,137.70801 29.0651303,137.75969 29.0390782,137.81137 C29.0260521,137.824289 29.0260521,137.850129 29.0260521,137.863049 C29.0130261,137.901809 29.0130261,137.940568 29,137.979328 L29,138.005168 L29,148.457364 C29,148.767442 29.247495,149 29.5340681,149 L29.5340681,149 Z M31.9829659,135.976744 L31.9829659,137.501292 L30.6803607,137.501292 L31.9829659,135.976744 L31.9829659,135.976744 Z M40.9318637,135.059432 L40.9318637,147.940568 L30.0681363,147.940568 L30.0681363,138.547804 L32.5170341,138.547804 C32.8166333,138.547804 33.0511022,138.315245 33.0511022,138.018088 L33.0511022,135.059432 L40.9318637,135.059432 Z M39.3426854,142.255814 L31.6573146,142.255814 C31.3577154,142.255814 31.1232465,142.488372 31.1232465,142.78553 C31.1232465,143.082687 31.3577154,143.315245 31.6573146,143.315245 L39.3426854,143.315245 C39.6422846,143.315245 39.8767535,143.082687 39.8767535,142.78553 C39.8767535,142.501292 39.6422846,142.255814 39.3426854,142.255814 Z M39.3426854,139.697674 L31.6573146,139.697674 C31.3577154,139.697674 31.1232465,139.930233 31.1232465,140.22739 C31.1232465,140.524548 31.3577154,140.757106 31.6573146,140.757106 L39.3426854,140.757106 C39.6422846,140.757106 39.8767535,140.524548 39.8767535,140.22739 C39.8767535,139.930233 39.6422846,139.697674 39.3426854,139.697674 Z" id="file-copy-2"></path>
        </g>
    </g>
</svg>