<?xml version="1.0" encoding="UTF-8"?>
<svg width="86px" height="22px" viewBox="0 0 86 22" version="1.1" xmlns="http://www.w3.org/2000/svg" xmlns:xlink="http://www.w3.org/1999/xlink">
    <title>Group Copy 4</title>
    <defs>
        <path d="M0.287866109,4.26724138 L2.7707113,4.26724138 L2.7707113,0.182360743 L0.287866109,0.182360743 L0.287866109,4.26724138 L0.287866109,4.26724138 Z M4.89372385,4.26724138 L7.08870293,4.26724138 L7.08870293,0.182360743 L4.89372385,0.182360743 L4.89372385,4.26724138 L4.89372385,4.26724138 Z M10.1832636,4.26724138 L12.3782427,4.26724138 L12.3782427,0.182360743 L10.1832636,0.182360743 L10.1832636,4.26724138 L10.1832636,4.26724138 Z M23.2811715,4.26724138 L25.7640167,4.26724138 L25.7640167,0.182360743 L23.2811715,0.182360743 L23.2811715,4.26724138 L23.2811715,4.26724138 Z M31.1615063,4.26724138 L33.3564854,4.26724138 L33.3564854,0.182360743 L31.1615063,0.182360743 L31.1615063,4.26724138 L31.1615063,4.26724138 Z M36.451046,4.26724138 L38.6460251,4.26724138 L38.6460251,0.182360743 L36.451046,0.182360743 L36.451046,4.26724138 L36.451046,4.26724138 Z M42.5682008,4.26724138 L45.051046,4.26724138 L45.051046,0.182360743 L42.5682008,0.182360743 L42.5682008,4.26724138 L42.5682008,4.26724138 Z M57.4292887,4.26724138 L59.9121339,4.26724138 L59.9121339,0.182360743 L57.4292887,0.182360743 L57.4292887,4.26724138 L57.4292887,4.26724138 Z M66.5690377,4.26724138 L69.0518828,4.26724138 L69.0518828,0.182360743 L66.5690377,0.182360743 L66.5690377,4.26724138 L66.5690377,4.26724138 Z M71.4267782,4.26724138 L73.9096234,4.26724138 L73.9096234,0.182360743 L71.4267782,0.182360743 L71.4267782,4.26724138 L71.4267782,4.26724138 Z M75.9246862,4.26724138 L78.1196653,4.26724138 L78.1196653,0.182360743 L75.9246862,0.182360743 L75.9246862,4.26724138 L75.9246862,4.26724138 Z M85.7841004,0.182360743 L83.5891213,0.182360743 L83.5891213,4.30371353 L85.7841004,4.30371353 L85.7841004,0.182360743 L85.7841004,0.182360743 Z" id="path-1"></path>
        <linearGradient x1="0.0103900673%" y1="49.4742053%" x2="99.9918715%" y2="49.4742053%" id="linearGradient-3">
            <stop stop-color="#81356F" offset="0%"></stop>
            <stop stop-color="#4C5CA6" offset="100%"></stop>
        </linearGradient>
    </defs>
    <g id="Page-1" stroke="none" stroke-width="1" fill="none" fill-rule="evenodd">
        <g id="1-user-management-list" transform="translate(-29.000000, -29.000000)">
            <g id="Group-Copy-4" transform="translate(29.000000, 29.000000)">
                <polygon id="Rectangle-path" fill="#FFFFFF" points="0.287866109 0.474137931 2.7707113 0.474137931 2.7707113 11.8899204 0.287866109 11.8899204"></polygon>
                <polygon id="Shape" fill="#FFFFFF" points="4.89372385 0.474137931 7.73640167 0.474137931 10.1832636 8.68037135 10.1832636 0.474137931 12.3782427 0.474137931 12.3782427 11.8899204 9.49958159 11.8899204 7.08870293 3.683687 7.08870293 11.8899204 4.89372385 11.8899204"></polygon>
                <polygon id="Shape" fill="#FFFFFF" points="13.9615063 0.474137931 16.4803347 0.474137931 17.883682 9.37334218 19.2870293 0.474137931 21.6979079 0.474137931 19.3230126 11.8899204 16.3364017 11.8899204"></polygon>
                <polygon id="Shape" fill="#FFFFFF" points="23.2811715 0.474137931 29.4702929 0.474137931 29.4702929 2.29774536 25.7280335 2.29774536 25.7280335 5.14257294 29.1464435 5.14257294 29.1464435 6.96618037 25.7280335 6.96618037 25.7280335 10.066313 29.4702929 10.066313 29.4702929 11.8899204 23.2811715 11.8899204"></polygon>
                <polygon id="Shape" fill="#FFFFFF" points="31.1615063 0.474137931 34.0401674 0.474137931 36.451046 8.68037135 36.451046 0.474137931 38.6460251 0.474137931 38.6460251 11.8899204 35.8033473 11.8899204 33.3564854 3.683687 33.3564854 11.8899204 31.1615063 11.8899204"></polygon>
                <polygon id="Shape" fill="#FFFFFF" points="42.5682008 2.29774536 40.265272 2.29774536 40.265272 0.474137931 47.3539749 0.474137931 47.3539749 2.29774536 45.051046 2.29774536 45.051046 11.8899204 42.5682008 11.8899204"></polygon>
                <path d="M50.6284519,5.79907162 L50.6284519,6.52851459 C50.6284519,8.93567639 50.6284519,10.321618 51.9238494,10.321618 C53.2192469,10.321618 53.2192469,8.89920424 53.2192469,6.52851459 L53.2192469,5.79907162 C53.2192469,3.39190981 53.2192469,2.00596817 51.9238494,2.00596817 C50.6644351,2.00596817 50.6284519,3.42838196 50.6284519,5.79907162 M48.0016736,6.96618037 L48.0016736,5.36140584 C48.0016736,1.89655172 48.9012552,0.25530504 51.9238494,0.25530504 C54.9464435,0.25530504 55.8460251,1.89655172 55.8460251,5.36140584 L55.8460251,6.96618037 C55.8460251,10.4310345 54.9464435,12.0722812 51.9238494,12.0722812 C48.9372385,12.0722812 48.0016736,10.4310345 48.0016736,6.96618037" id="Shape" fill="#FFFFFF"></path>
                <path d="M60.6317992,5.47082228 C61.9991632,5.47082228 62.2870293,5.17904509 62.2870293,3.8295756 C62.2870293,2.4801061 61.9991632,2.15185676 60.6317992,2.15185676 L59.9121339,2.15185676 L59.9121339,5.47082228 L60.6317992,5.47082228 L60.6317992,5.47082228 Z M60.9556485,6.96618037 L60.5958159,6.96618037 L59.9121339,6.96618037 L59.9121339,11.8899204 L57.4292887,11.8899204 L57.4292887,0.474137931 L60.6317992,0.474137931 C63.5824268,0.474137931 64.841841,1.1306366 64.841841,3.61074271 C64.841841,5.17904509 64.2301255,5.98143236 63.1506276,6.41909814 L64.9857741,11.8899204 L62.4309623,11.8899204 L60.9556485,6.96618037 L60.9556485,6.96618037 Z" id="Shape" fill="#FFFFFF"></path>
                <path d="M66.5690377,7.40384615 L66.5690377,0.474137931 L69.0518828,0.474137931 L69.0518828,7.36737401 C69.0518828,9.37334218 69.0158996,10.321618 70.2393305,10.321618 C71.4627615,10.321618 71.4267782,9.37334218 71.4267782,7.36737401 L71.4267782,0.474137931 L73.9096234,0.474137931 L73.9096234,7.25795756 C73.9096234,11.0145889 73.3698745,12.0722812 70.2393305,12.0722812 C67.1087866,12.0722812 66.5690377,11.0145889 66.5690377,7.40384615" id="Shape" fill="#FFFFFF"></path>
                <polygon id="Shape" fill="#FFFFFF" points="75.9246862 0.474137931 79.3790795 0.474137931 80.8543933 9.04509284 82.3656904 0.474137931 85.7841004 0.474137931 85.7841004 11.8899204 83.5891213 11.8899204 83.5891213 2.91777188 83.5531381 2.91777188 83.4451883 3.8295756 81.8259414 11.8899204 79.8828452 11.8899204 78.2995816 3.8295756 78.1916318 2.91777188 78.1556485 2.91777188 78.1556485 11.8899204 75.9246862 11.8899204"></polygon>
                <g id="Clipped" transform="translate(0.000000, 16.412467)">
                    <mask id="mask-2" fill="white">
                        <use xlink:href="#path-1"></use>
                    </mask>
                    <g id="SVGID_1_"></g>
                    <rect id="Rectangle-path" fill="url(#linearGradient-3)" mask="url(#mask-2)" x="0.287866109" y="0.182360743" width="85.4962343" height="4.12135279"></rect>
                </g>
            </g>
        </g>
    </g>
</svg>