<?xml version="1.0" encoding="UTF-8"?>
<svg width="14px" height="14px" viewBox="0 0 14 14" version="1.1" xmlns="http://www.w3.org/2000/svg" xmlns:xlink="http://www.w3.org/1999/xlink">
    <title>presentation copy 2</title>
    <g id="Page-1" stroke="none" stroke-width="1" fill="none" fill-rule="evenodd">
        <g id="1-user-management-list" transform="translate(-29.000000, -274.000000)" fill="#9294A3">
            <path d="M29.4948276,277.533161 L30.2793103,277.533161 L30.2793103,283.27304 C30.2793103,283.550388 30.4965517,283.767442 30.7741379,283.767442 L32.5844828,283.767442 L30.3517241,287.24031 C30.2068966,287.469423 30.2672414,287.770887 30.4965517,287.91559 C30.5810345,287.963824 30.6655172,287.987941 30.762069,287.987941 C30.9189655,287.987941 31.087931,287.903531 31.1724138,287.758829 L33.7431034,283.755383 L38.2327586,283.755383 L40.8034483,287.770887 C40.9,287.91559 41.0568966,288 41.2137931,288 C41.3103448,288 41.3948276,287.975883 41.4793103,287.927649 C41.7086207,287.782946 41.7810345,287.481481 41.6241379,287.252369 L39.4034483,283.767442 L41.2258621,283.767442 C41.5034483,283.767442 41.7206897,283.550388 41.7206897,283.27304 L41.7206897,277.533161 L42.5051724,277.533161 C42.7827586,277.533161 43,277.316107 43,277.03876 L43,274.494401 C43,274.217054 42.7827586,274 42.5051724,274 L29.4948276,274 C29.2172414,274 29,274.217054 29,274.494401 L29,277.03876 C29,277.316107 29.2172414,277.533161 29.4948276,277.533161 L29.4948276,277.533161 Z M40.7310345,282.790698 L38.6431034,282.790698 C38.5344828,282.754522 38.4258621,282.754522 38.3172414,282.790698 L33.5137931,282.790698 L33.4655172,282.790698 L31.2689655,282.790698 L31.2689655,277.533161 L40.7431034,277.533161 L40.7431034,282.790698 L40.7310345,282.790698 Z M36.8689655,278.570198 C37.05,278.365202 37.3637931,278.329027 37.5689655,278.509905 C37.7741379,278.690784 37.8103448,279.004307 37.6293103,279.209302 L37.6293103,279.209302 L35.987931,281.162791 C35.8551724,281.307494 35.662069,281.367786 35.4810345,281.319552 L35.4810345,281.319552 L33.8637931,280.897502 L33.0793103,281.681309 C32.9827586,281.777778 32.85,281.826012 32.7293103,281.826012 C32.5965517,281.826012 32.4758621,281.777778 32.3672414,281.693368 C32.1741379,281.500431 32.1741379,281.186908 32.3672414,280.993971 L32.3672414,280.993971 L33.3568966,280.005168 C33.4775862,279.872524 33.6586207,279.824289 33.8275862,279.872524 L33.8275862,279.872524 L35.4206897,280.282515 Z M41.9982759,274.988803 L41.9982759,276.544358 L29.9775862,276.544358 L29.9775862,274.988803 L41.9982759,274.988803 Z" id="presentation-copy-2"></path>
        </g>
    </g>
</svg>