<?xml version="1.0" encoding="UTF-8"?>
<svg width="15px" height="15px" viewBox="0 0 15 15" version="1.1" xmlns="http://www.w3.org/2000/svg" xmlns:xlink="http://www.w3.org/1999/xlink">
    <title>settings copy</title>
    <g id="Page-1" stroke="none" stroke-width="1" fill="none" fill-rule="evenodd">
        <g id="1-user-management-list" transform="translate(-29.000000, -319.000000)" fill="#9294A3">
            <path d="M29.5292599,324.948276 C29.232358,324.948276 29,325.181034 29,325.478448 L29,327.547414 C29,327.844828 29.232358,328.077586 29.5292599,328.077586 L30.4974182,328.077586 C30.6394148,328.633621 30.858864,329.163793 31.1557659,329.655172 L30.4845095,330.327586 C30.277969,330.534483 30.277969,330.87069 30.4845095,331.077586 L31.9432014,332.538793 C32.1497418,332.74569 32.4853701,332.74569 32.6919105,332.538793 L33.3760757,331.853448 C33.8666093,332.137931 34.3958692,332.357759 34.9509466,332.5 L34.9509466,333.469828 C34.9509466,333.767241 35.1833046,334 35.4802065,334 L37.545611,334 C37.8425129,334 38.0748709,333.767241 38.0748709,333.469828 L38.0748709,332.487069 C38.6299484,332.344828 39.1462995,332.125 39.636833,331.840517 L40.3339071,332.538793 C40.5404475,332.74569 40.8760757,332.74569 41.0826162,332.538793 L42.5413081,331.077586 C42.7478485,330.87069 42.7478485,330.534483 42.5413081,330.327586 L41.8442341,329.62931 C42.1282272,329.137931 42.3476764,328.62069 42.489673,328.064655 L43.4707401,328.064655 C43.767642,328.064655 44,327.831897 44,327.534483 L44,325.465517 C44,325.168103 43.767642,324.935345 43.4707401,324.935345 L42.489673,324.935345 C42.3476764,324.37931 42.1282272,323.862069 41.8442341,323.37069 L42.5413081,322.672414 C42.7478485,322.465517 42.7478485,322.12931 42.5413081,321.922414 L41.0697074,320.474138 C40.863167,320.267241 40.5275387,320.267241 40.3209983,320.474138 L39.636833,321.159483 C39.1462995,320.875 38.6170396,320.655172 38.0619621,320.5 L38.0619621,319.530172 C38.0619621,319.232759 37.8296041,319 37.5327022,319 L35.4672978,319 C35.1703959,319 34.9380379,319.232759 34.9380379,319.530172 L34.9380379,320.5 C34.3829604,320.642241 33.8537005,320.862069 33.363167,321.146552 L32.6790017,320.461207 C32.4724613,320.25431 32.136833,320.25431 31.9302926,320.461207 L30.4716007,321.935345 C30.2650602,322.142241 30.2650602,322.478448 30.4716007,322.685345 L31.1428571,323.357759 C30.8459552,323.849138 30.626506,324.37931 30.4845095,324.948276 L29.5292599,324.948276 L29.5292599,324.948276 Z M37.0034423,320.073276 L37.0034423,320.939655 C37.0034423,321.198276 37.1841652,321.418103 37.429432,321.456897 C38.1394148,321.586207 38.7977625,321.87069 39.3915663,322.271552 C39.5981067,322.413793 39.8820998,322.387931 40.0628227,322.206897 L40.6824441,321.586207 L41.3924269,322.297414 L40.7728055,322.918103 C40.5920826,323.099138 40.5662651,323.383621 40.7082616,323.590517 C41.1084337,324.185345 41.3795181,324.844828 41.5215146,325.556034 C41.5731497,325.801724 41.792599,325.99569 42.0378657,325.99569 L42.9156627,325.99569 L42.9156627,327.00431 L42.0378657,327.00431 C41.7796902,327.00431 41.560241,327.185345 41.5215146,327.431034 C41.3924269,328.142241 41.1213425,328.801724 40.7082616,329.396552 C40.5662651,329.603448 40.5920826,329.887931 40.7728055,330.068966 L41.3924269,330.689655 L40.6824441,331.400862 L40.0628227,330.780172 C39.8820998,330.599138 39.5981067,330.573276 39.3915663,330.715517 C38.7977625,331.12931 38.1394148,331.400862 37.429432,331.530172 C37.1841652,331.581897 37.0034423,331.801724 37.0034423,332.047414 L37.0034423,332.913793 L35.9965577,332.913793 L35.9965577,332.047414 C35.9965577,331.788793 35.8158348,331.568966 35.5576592,331.530172 C34.8347676,331.400862 34.17642,331.12931 33.5826162,330.715517 C33.3760757,330.573276 33.0920826,330.599138 32.9113597,330.780172 L32.3046472,331.387931 L31.5946644,330.715517 L32.2013769,330.107759 C32.3820998,329.926724 32.4079174,329.642241 32.2659208,329.435345 C31.8528399,328.840517 31.5817556,328.168103 31.439759,327.456897 C31.3881239,327.211207 31.1815835,327.030172 30.9234079,327.030172 L30.0714286,327.030172 L30.0714286,326.021552 L30.9234079,326.021552 C31.1686747,326.008621 31.3881239,325.827586 31.439759,325.568966 C31.5688468,324.844828 31.8528399,324.185345 32.253012,323.590517 C32.3950086,323.383621 32.369191,323.099138 32.1884682,322.918103 L31.5946644,322.310345 L32.3046472,321.599138 L32.9113597,322.206897 C33.0920826,322.387931 33.3760757,322.413793 33.5826162,322.271552 C34.17642,321.857759 34.8476764,321.586207 35.5576592,321.456897 C35.802926,321.405172 35.9965577,321.198276 35.9965577,320.939655 L35.9965577,320.073276 L37.0034423,320.073276 Z M36.4870912,322.956897 C34.4862306,322.956897 32.8597246,324.586207 32.8597246,326.590517 C32.8597246,328.594828 34.4862306,330.224138 36.4870912,330.224138 C38.4879518,330.224138 40.1144578,328.594828 40.1144578,326.590517 C40.1144578,324.586207 38.4879518,322.956897 36.4870912,322.956897 Z M36.4870912,324.017241 C37.9070568,324.017241 39.055938,325.168103 39.055938,326.590517 C39.055938,328.012931 37.9070568,329.163793 36.4870912,329.163793 C35.0671256,329.163793 33.9182444,328.012931 33.9182444,326.590517 C33.9182444,325.168103 35.0671256,324.017241 36.4870912,324.017241 Z" id="settings-copy"></path>
        </g>
    </g>
</svg>